<?xml version="1.0" encoding="UTF-8"?>
<svg width="340px" height="60px" viewBox="0 0 340 60" version="1.1" xmlns="http://www.w3.org/2000/svg" xmlns:xlink="http://www.w3.org/1999/xlink">
    <!-- Generator: Sketch 49.1 (51147) - http://www.bohemiancoding.com/sketch -->
    <title>Disconnect_Button</title>
    <desc>Created with Sketch.</desc>
    <defs>
        <rect id="path-1" x="0" y="0" width="340" height="60" rx="4"></rect>
    </defs>
    <g id="Page-1" stroke="none" stroke-width="1" fill="none" fill-rule="evenodd">
        <g id="Horizontal_White-Copy" transform="translate(-57.000000, -95.000000)">
            <g id="Disconnect_Button" transform="translate(57.000000, 95.000000)">
                <g id="Rectangle-4">
                    <use fill="#FFFFFF" fill-rule="evenodd" xlink:href="#path-1"></use>
                    <rect stroke="#3F51B5" stroke-width="1" x="0.5" y="0.5" width="339" height="59" rx="4"></rect>
                </g>
                <g id="Group" transform="translate(62.000000, 17.000000)" fill="#3F51B5">
                    <g id="Logo" transform="translate(109.000000, 2.000000)">
                        <path d="M22.283136,0.138522953 L0.0584488591,0.176841379 C0.0584488591,0.176841379 0.0967672853,13.0709918 0.0967672853,13.4350168 C0.0967672853,14.7186841 1.01640951,23.2253747 10.9983595,23.5510814 C12.1095939,23.5893998 21.1719017,23.34033 22.2639768,13.4924945 C22.3406137,12.6878075 22.283136,0.138522953 22.283136,0.138522953 Z" id="Shape" fill-rule="nonzero"></path>
                        <path d="M34.9783372,16.2115922 C32.9283014,16.2115922 30.9932209,15.5027013 29.383847,14.0657603 L30.8016287,12.3797495 C32.085296,13.4909839 33.3689633,14.1232379 35.0358148,14.1232379 C36.491915,14.1232379 37.4115572,13.4526655 37.4115572,12.4372272 L37.4115572,12.3989088 C37.4115572,11.4409481 36.8750993,10.9236493 34.3844016,10.348873 C31.5296788,9.65914128 29.9203049,8.81613591 29.9203049,6.34459742 L29.9203049,6.30627899 C29.9203049,4.00717342 31.8362262,2.41695873 34.4993569,2.41695873 C36.4535966,2.41695873 38.0054929,3.01089434 39.365797,4.10296949 L38.1012889,5.8847763 C36.8942585,4.98429329 35.6872281,4.50531296 34.4610384,4.50531296 C33.0815751,4.50531296 32.2768881,5.21420385 32.2768881,6.09552765 L32.2768881,6.13384607 C32.2768881,7.16844358 32.889983,7.62826469 35.4573175,8.24135951 C38.2928811,8.93109118 39.7681405,9.94652948 39.7681405,12.1689982 L39.7681405,12.2073166 C39.7681405,14.7171735 37.7947415,16.2115922 34.9783372,16.2115922 Z" id="S"></path>
                        <path d="M50.2673892,16.02 L47.9682837,16.02 L47.9682837,14.7746512 C47.278552,15.5984973 46.2247953,16.2307514 44.6920582,16.2307514 C42.7761369,16.2307514 41.0901262,15.1386762 41.0901262,13.1077996 L41.0901262,13.0694812 C41.0901262,10.8278533 42.8336146,9.75493735 45.1901978,9.75493735 C46.4163874,9.75493735 47.2019151,9.92737027 47.9874429,10.17644 L47.9874429,9.9848479 C47.9874429,8.58622535 47.1061191,7.81985683 45.4967452,7.81985683 C44.3663516,7.81985683 43.5233462,8.0689266 42.603704,8.45211086 L41.97145,6.59366719 C43.0826843,6.09552765 44.1747595,5.75066181 45.8224518,5.75066181 C48.811289,5.75066181 50.2673892,7.32171729 50.2673892,10.0231663 L50.2673892,16.02 Z M48.0257613,12.3605903 L48.0257613,11.7858139 C47.4318257,11.5559034 46.6079795,11.3834705 45.7074965,11.3834705 C44.2513963,11.3834705 43.3892317,11.9774061 43.3892317,12.9545259 L43.3892317,12.9928444 C43.3892317,13.950805 44.2513963,14.487263 45.3434715,14.487263 C46.8762085,14.487263 48.0257613,13.6250984 48.0257613,12.3605903 Z" id="a"></path>
                        <path d="M53.1412712,16.02 L53.1412712,7.89649368 L51.8576039,7.89649368 L51.8576039,5.96141316 L53.1412712,5.96141316 L53.1412712,5.23336306 C53.1412712,4.10296949 53.4286594,3.25996411 53.9651174,2.72350614 C54.5015753,2.18704818 55.2487846,1.91881919 56.2450637,1.91881919 C57.0497507,1.91881919 57.6053678,2.03377447 58.1226666,2.18704818 L58.1226666,4.14128791 C57.6628455,3.98801421 57.260502,3.89221814 56.7623625,3.89221814 C55.8810387,3.89221814 55.4212176,4.37119847 55.4212176,5.42495519 L55.4212176,5.98057237 L58.1035074,5.98057237 L58.1035074,7.89649368 L55.459536,7.89649368 L55.459536,16.02 L53.1412712,16.02 Z" id="f"></path>
                        <path d="M63.8321121,16.2499106 C60.9007525,16.2499106 58.6399654,14.1232379 58.6399654,11.0002862 L58.6399654,10.9619678 C58.6399654,8.0689266 60.6900012,5.69318417 63.5830423,5.69318417 C66.8017901,5.69318417 68.4303232,8.2222003 68.4303232,11.1344007 C68.4303232,11.345152 68.411164,11.5559034 68.3920048,11.7858139 L60.9582301,11.7858139 C61.2072999,13.4335063 62.3760119,14.3531485 63.8704305,14.3531485 C65.0008241,14.3531485 65.8055111,13.9316458 66.610198,13.1461181 L67.9705021,14.3531485 C67.0125415,15.5027013 65.6905558,16.2499106 63.8321121,16.2499106 Z M60.9390709,10.2530769 L66.1312177,10.2530769 C65.977944,8.75865827 65.0966202,7.58994627 63.5638831,7.58994627 C62.1461014,7.58994627 61.1498223,8.68202141 60.9390709,10.2530769 Z" id="e"></path>
                        <path d="M73.9481766,16.02 L73.9481766,3.52819309 L69.2733286,3.52819309 L69.2733286,2.60855086 L79.6193037,2.60855086 L79.6193037,3.52819309 L74.9444557,3.52819309 L74.9444557,16.02 L73.9481766,16.02 Z M80.5197867,16.02 L80.5197867,6.24880135 L81.4585881,6.24880135 L81.4585881,9.02688725 C82.2249567,7.28339886 83.8534898,6.01889079 85.7885703,6.09552765 L85.7885703,7.13012515 L85.6927742,7.13012515 C83.4319871,7.13012515 81.4585881,8.83529512 81.4585881,12.0157245 L81.4585881,16.02 L80.5197867,16.02 Z" id="Tr"></path>
                        <path d="M91.15315,16.2499106 C88.5858154,16.2499106 86.3633467,14.1998748 86.3633467,11.1535599 L86.3633467,11.1152415 C86.3633467,8.27967794 88.3559049,6.01889079 90.9998763,6.01889079 C93.7396437,6.01889079 95.4831321,8.24135951 95.4831321,11.1344007 C95.4831321,11.3068336 95.4831321,11.3643112 95.4639729,11.517585 L87.3596258,11.517585 C87.5320587,13.950805 89.2755471,15.3685868 91.1914684,15.3685868 C92.7050462,15.3685868 93.7396437,14.6980143 94.5443307,13.8358497 L95.1957439,14.4106261 C94.1994649,15.4835421 93.0307529,16.2499106 91.15315,16.2499106 Z M87.3596258,10.6745796 L94.4676938,10.6745796 C94.3335793,8.70118063 93.2031858,6.88105538 90.9615578,6.88105538 C89.0264773,6.88105538 87.5320587,8.5095885 87.3596258,10.6745796 Z" id="e"></path>
                        <polygon id="k" points="97.9355114 16.02 97.9355114 2.03377447 98.8743128 2.03377447 98.8743128 12.513864 104.928624 6.24880135 106.173973 6.24880135 101.901469 10.5787835 106.308088 16.02 105.120216 16.02 101.250055 11.249356 98.8743128 13.6442576 98.8743128 16.02"></polygon>
                    </g>
                    <path d="M1.65039062,19 L1.65039062,4.78125 L5.6640625,4.78125 C6.90104785,4.78125 7.99478691,5.05468477 8.9453125,5.6015625 C9.89583809,6.14844023 10.6298802,6.92642725 11.1474609,7.93554688 C11.6650417,8.9446665 11.9270833,10.1035091 11.9335938,11.4121094 L11.9335938,12.3203125 C11.9335938,13.661465 11.6748073,14.8365835 11.1572266,15.8457031 C10.6396458,16.8548228 9.90072095,17.6295546 8.94042969,18.1699219 C7.98013843,18.7102892 6.86198555,18.9869791 5.5859375,19 L1.65039062,19 Z M3.52539062,6.32421875 L3.52539062,17.4667969 L5.49804687,17.4667969 C6.9433666,17.4667969 8.06802983,17.0175826 8.87207031,16.1191406 C9.67611079,15.2206986 10.078125,13.9414146 10.078125,12.28125 L10.078125,11.4511719 C10.078125,9.83658047 9.69889702,8.58171021 8.94042969,7.68652344 C8.18196235,6.79133667 7.10612676,6.33723965 5.71289062,6.32421875 L3.52539062,6.32421875 Z M16.4453125,19 L14.6386719,19 L14.6386719,8.43359375 L16.4453125,8.43359375 L16.4453125,19 Z M14.4921875,5.63085938 C14.4921875,5.33788916 14.5817048,5.0904958 14.7607422,4.88867188 C14.9397795,4.68684795 15.2050764,4.5859375 15.5566406,4.5859375 C15.9082049,4.5859375 16.1751293,4.68684795 16.3574219,4.88867188 C16.5397145,5.0904958 16.6308594,5.33788916 16.6308594,5.63085938 C16.6308594,5.92382959 16.5397145,6.16796777 16.3574219,6.36328125 C16.1751293,6.55859473 15.9082049,6.65625 15.5566406,6.65625 C15.2050764,6.65625 14.9397795,6.55859473 14.7607422,6.36328125 C14.5817048,6.16796777 14.4921875,5.92382959 14.4921875,5.63085938 Z M25.4882812,16.1972656 C25.4882812,15.7089819 25.3043638,15.329754 24.9365234,15.0595703 C24.5686831,14.7893867 23.9274134,14.5566416 23.0126953,14.3613281 C22.0979772,14.1660146 21.372073,13.931642 20.8349609,13.6582031 C20.2978489,13.3847643 19.9007174,13.0592467 19.6435547,12.6816406 C19.3863919,12.3040346 19.2578125,11.8548203 19.2578125,11.3339844 C19.2578125,10.4680946 19.6240198,9.73568008 20.3564453,9.13671875 C21.0888708,8.53775742 22.0247339,8.23828125 23.1640625,8.23828125 C24.3619852,8.23828125 25.3336551,8.54752295 26.0791016,9.16601562 C26.824548,9.7845083 27.1972656,10.575516 27.1972656,11.5390625 L25.3808594,11.5390625 C25.3808594,11.0442684 25.1709005,10.6178403 24.7509766,10.2597656 C24.3310526,9.90169092 23.8020865,9.72265625 23.1640625,9.72265625 C22.5065071,9.72265625 21.9921894,9.86588398 21.6210937,10.1523438 C21.2499981,10.4388035 21.0644531,10.8131487 21.0644531,11.2753906 C21.0644531,11.7115907 21.2369774,12.0403635 21.5820312,12.2617188 C21.9270851,12.483074 22.5504512,12.6946604 23.4521484,12.8964844 C24.3538457,13.0983083 25.0846326,13.3391913 25.6445312,13.6191406 C26.2044299,13.8990899 26.6194648,14.2360006 26.8896484,14.6298828 C27.1598321,15.023765 27.2949219,15.5039034 27.2949219,16.0703125 C27.2949219,17.0143276 26.9173215,17.771156 26.1621094,18.3408203 C25.4068973,18.9104846 24.4270894,19.1953125 23.2226562,19.1953125 C22.3762979,19.1953125 21.6276074,19.0455744 20.9765625,18.7460938 C20.3255176,18.4466131 19.8160826,18.028323 19.4482422,17.4912109 C19.0804018,16.9540989 18.8964844,16.37305 18.8964844,15.7480469 L20.703125,15.7480469 C20.7356772,16.3535187 20.9781878,16.8336571 21.4306641,17.1884766 C21.8831403,17.543296 22.480465,17.7207031 23.2226562,17.7207031 C23.9062534,17.7207031 24.4547505,17.5823582 24.8681641,17.3056641 C25.2815776,17.02897 25.4882812,16.6595075 25.4882812,16.1972656 Z M33.8867187,17.7207031 C34.5312532,17.7207031 35.0943986,17.5253926 35.5761719,17.1347656 C36.0579451,16.7441387 36.3248695,16.2558623 36.3769531,15.6699219 L38.0859375,15.6699219 C38.0533853,16.2753937 37.845054,16.8515598 37.4609375,17.3984375 C37.076821,17.9453152 36.5641308,18.3815088 35.9228516,18.7070312 C35.2815723,19.0325537 34.6028682,19.1953125 33.8867187,19.1953125 C32.4479095,19.1953125 31.3037152,18.7151741 30.4541016,17.7548828 C29.6044879,16.7945916 29.1796875,15.4811281 29.1796875,13.8144531 L29.1796875,13.5117188 C29.1796875,12.4830678 29.3684877,11.5683634 29.7460937,10.7675781 C30.1236998,9.96679287 30.6656866,9.3450543 31.3720703,8.90234375 C32.0784541,8.4596332 32.9134066,8.23828125 33.8769531,8.23828125 C35.0618549,8.23828125 36.0465456,8.59309541 36.8310547,9.30273438 C37.6155638,10.0123733 38.0338539,10.9335881 38.0859375,12.0664062 L36.3769531,12.0664062 C36.3248695,11.3828091 36.0660831,10.8212913 35.6005859,10.3818359 C35.1350888,9.94238062 34.5605503,9.72265625 33.8769531,9.72265625 C32.9589798,9.72265625 32.2477239,10.0530566 31.7431641,10.7138672 C31.2386042,11.3746778 30.9863281,12.3300719 30.9863281,13.5800781 L30.9863281,13.921875 C30.9863281,15.139329 31.2369767,16.0768196 31.7382812,16.734375 C32.2395858,17.3919304 32.9557245,17.7207031 33.8867187,17.7207031 Z M39.6386719,13.6191406 C39.6386719,12.5839792 39.8421204,11.6529989 40.2490234,10.8261719 C40.6559265,9.99934482 41.2223271,9.36133037 41.9482422,8.91210938 C42.6741573,8.46288838 43.5025995,8.23828125 44.4335938,8.23828125 C45.872403,8.23828125 47.0361284,8.73632314 47.9248047,9.73242188 C48.813481,10.7285206 49.2578125,12.0533771 49.2578125,13.7070312 L49.2578125,13.8339844 C49.2578125,14.8626354 49.0608744,15.7854777 48.6669922,16.6025391 C48.27311,17.4196004 47.7099646,18.0559873 46.9775391,18.5117188 C46.2451135,18.9674502 45.4036506,19.1953125 44.453125,19.1953125 C43.0208262,19.1953125 41.860356,18.6972706 40.9716797,17.7011719 C40.0830034,16.7050731 39.6386719,15.386727 39.6386719,13.7460938 L39.6386719,13.6191406 Z M41.4550781,13.8339844 C41.4550781,15.0058652 41.7268853,15.946611 42.2705078,16.65625 C42.8141303,17.365889 43.5416621,17.7207031 44.453125,17.7207031 C45.3710983,17.7207031 46.1002577,17.3610062 46.640625,16.6416016 C47.1809923,15.9221969 47.4511719,14.91472 47.4511719,13.6191406 C47.4511719,12.4602807 47.1761095,11.5211625 46.6259766,10.8017578 C46.0758436,10.0823532 45.3450566,9.72265625 44.4335938,9.72265625 C43.5416622,9.72265625 42.8222684,10.0774704 42.2753906,10.7871094 C41.7285129,11.4967483 41.4550781,12.5123632 41.4550781,13.8339844 Z M53.2324219,8.43359375 L53.2910156,9.76171875 C54.0983113,8.74608867 55.1529883,8.23828125 56.4550781,8.23828125 C58.6881622,8.23828125 59.814453,9.49803428 59.8339844,12.0175781 L59.8339844,19 L58.0273438,19 L58.0273438,12.0078125 C58.0208333,11.2460899 57.8466814,10.6829445 57.5048828,10.3183594 C57.1630842,9.95377422 56.630863,9.77148438 55.9082031,9.77148438 C55.3222627,9.77148438 54.8079449,9.92773281 54.3652344,10.2402344 C53.9225238,10.5527359 53.5774752,10.9628881 53.3300781,11.4707031 L53.3300781,19 L51.5234375,19 L51.5234375,8.43359375 L53.2324219,8.43359375 Z M64.2675781,8.43359375 L64.3261719,9.76171875 C65.1334676,8.74608867 66.1881445,8.23828125 67.4902344,8.23828125 C69.7233185,8.23828125 70.8496093,9.49803428 70.8691406,12.0175781 L70.8691406,19 L69.0625,19 L69.0625,12.0078125 C69.0559896,11.2460899 68.8818376,10.6829445 68.5400391,10.3183594 C68.1982405,9.95377422 67.6660192,9.77148438 66.9433594,9.77148438 C66.3574189,9.77148438 65.8431012,9.92773281 65.4003906,10.2402344 C64.9576801,10.5527359 64.6126314,10.9628881 64.3652344,11.4707031 L64.3652344,19 L62.5585937,19 L62.5585937,8.43359375 L64.2675781,8.43359375 Z M77.9785156,19.1953125 C76.5462168,19.1953125 75.3808639,18.7249396 74.4824219,17.7841797 C73.5839799,16.8434198 73.1347656,15.5852943 73.1347656,14.0097656 L73.1347656,13.6777344 C73.1347656,12.6295521 73.3349589,11.693689 73.7353516,10.8701172 C74.1357442,10.0465454 74.6956344,9.40202056 75.4150391,8.93652344 C76.1344437,8.47102632 76.9140583,8.23828125 77.7539062,8.23828125 C79.127611,8.23828125 80.1953087,8.69075068 80.9570312,9.59570312 C81.7187538,10.5006556 82.0996094,11.7962155 82.0996094,13.4824219 L82.0996094,14.234375 L74.9414062,14.234375 C74.967448,15.2760469 75.271807,16.1175098 75.8544922,16.7587891 C76.4371774,17.4000683 77.1777299,17.7207031 78.0761719,17.7207031 C78.7141959,17.7207031 79.2545551,17.5904961 79.6972656,17.3300781 C80.1399762,17.0696602 80.5273421,16.7246115 80.859375,16.2949219 L81.9628906,17.1542969 C81.0774695,18.5149808 79.7493578,19.1953125 77.9785156,19.1953125 Z M77.7539062,9.72265625 C77.0247359,9.72265625 76.4127629,9.98795308 75.9179688,10.5185547 C75.4231746,11.0491563 75.1171881,11.792964 75,12.75 L80.2929688,12.75 L80.2929688,12.6132812 C80.2408852,11.6953079 79.9934918,10.984052 79.5507812,10.4794922 C79.1080707,9.97493237 78.5091184,9.72265625 77.7539062,9.72265625 Z M88.4277344,17.7207031 C89.0722688,17.7207031 89.6354143,17.5253926 90.1171875,17.1347656 C90.5989607,16.7441387 90.8658852,16.2558623 90.9179687,15.6699219 L92.6269531,15.6699219 C92.5944009,16.2753937 92.3860696,16.8515598 92.0019531,17.3984375 C91.6178366,17.9453152 91.1051464,18.3815088 90.4638672,18.7070312 C89.8225879,19.0325537 89.1438838,19.1953125 88.4277344,19.1953125 C86.9889251,19.1953125 85.8447308,18.7151741 84.9951172,17.7548828 C84.1455036,16.7945916 83.7207031,15.4811281 83.7207031,13.8144531 L83.7207031,13.5117188 C83.7207031,12.4830678 83.9095033,11.5683634 84.2871094,10.7675781 C84.6647154,9.96679287 85.2067022,9.3450543 85.9130859,8.90234375 C86.6194697,8.4596332 87.4544223,8.23828125 88.4179687,8.23828125 C89.6028705,8.23828125 90.5875612,8.59309541 91.3720703,9.30273438 C92.1565794,10.0123733 92.5748695,10.9335881 92.6269531,12.0664062 L90.9179687,12.0664062 C90.8658852,11.3828091 90.6070987,10.8212913 90.1416016,10.3818359 C89.6761044,9.94238062 89.1015659,9.72265625 88.4179687,9.72265625 C87.4999954,9.72265625 86.7887395,10.0530566 86.2841797,10.7138672 C85.7796199,11.3746778 85.5273437,12.3300719 85.5273437,13.5800781 L85.5273437,13.921875 C85.5273437,15.139329 85.7779923,16.0768196 86.2792969,16.734375 C86.7806015,17.3919304 87.4967401,17.7207031 88.4277344,17.7207031 Z M97.109375,5.875 L97.109375,8.43359375 L99.0820312,8.43359375 L99.0820312,9.83007812 L97.109375,9.83007812 L97.109375,16.3828125 C97.109375,16.8059917 97.1972647,17.1233713 97.3730469,17.3349609 C97.548829,17.5465505 97.8483052,17.6523438 98.2714844,17.6523438 C98.4798188,17.6523438 98.7662742,17.6132816 99.1308594,17.5351562 L99.1308594,19 C98.6555966,19.130209 98.1933616,19.1953125 97.7441406,19.1953125 C96.9368449,19.1953125 96.3281271,18.9511743 95.9179688,18.4628906 C95.5078104,17.9746069 95.3027344,17.2812545 95.3027344,16.3828125 L95.3027344,9.83007812 L93.3789062,9.83007812 L93.3789062,8.43359375 L95.3027344,8.43359375 L95.3027344,5.875 L97.109375,5.875 Z" id="Disconnect"></path>
                </g>
            </g>
        </g>
    </g>
</svg>