<?xml version="1.0" encoding="UTF-8"?>
<svg width="417px" height="93px" viewBox="0 0 417 93" version="1.1" xmlns="http://www.w3.org/2000/svg" xmlns:xlink="http://www.w3.org/1999/xlink">
    <!-- Generator: Sketch 49.1 (51147) - http://www.bohemiancoding.com/sketch -->
    <title>Horizontal_White</title>
    <desc>Created with Sketch.</desc>
    <defs></defs>
    <g id="Page-1" stroke="none" stroke-width="1" fill="none" fill-rule="evenodd">
        <g id="Horizontal_White" transform="translate(-100.000000, -59.000000)" fill="#FFFFFF">
            <g transform="translate(100.000000, 59.000000)">
                <path d="M87.3848448,0.54322725 L0.229211206,0.693495584 C0.229211206,0.693495584 0.37947954,51.2587899 0.37947954,52.6863391 C0.37947954,57.7203282 3.98591955,91.0798983 43.1308205,92.3571792 C47.4886022,92.5074475 83.0270631,91.5307033 87.3097106,52.9117416 C87.6102473,49.7561066 87.3848448,0.54322725 87.3848448,0.54322725 Z" id="Shape" fill-rule="nonzero"></path>
                <path d="M137.169946,64.7513417 C129.13059,64.7513417 121.542039,61.9713775 115.230769,56.336315 L120.790698,49.7245083 C125.824687,54.08229 130.858676,56.5617175 137.395348,56.5617175 C143.105545,56.5617175 146.711985,53.9320216 146.711985,49.9499108 L146.711985,49.7996425 C146.711985,46.0429341 144.608228,44.0143116 134.840787,41.7602866 C123.645796,39.0554566 117.334526,35.7495533 117.334526,26.0572457 L117.334526,25.9069774 C117.334526,16.8908774 124.847943,10.6547415 135.291592,10.6547415 C142.955277,10.6547415 149.041144,12.9839007 154.37567,17.2665482 L149.416815,24.2540257 C144.683363,20.7227199 139.94991,18.8443657 135.141323,18.8443657 C129.731663,18.8443657 126.576028,21.6243299 126.576028,25.0805016 L126.576028,25.2307699 C126.576028,29.2880149 128.980322,31.0912349 139.0483,33.4955282 C150.168157,36.2003583 155.953488,40.1824691 155.953488,48.8980325 L155.953488,49.0483008 C155.953488,58.8908767 148.214668,64.7513417 137.169946,64.7513417 Z" id="S"></path>
                <path d="M197.127011,64 L188.110911,64 L188.110911,59.1162792 C185.406081,62.3470483 181.273702,64.8264758 175.262969,64.8264758 C167.749552,64.8264758 161.137745,60.5438283 161.137745,52.5796066 L161.137745,52.4293383 C161.137745,43.6386408 167.974954,39.4311274 177.216457,39.4311274 C182.025044,39.4311274 185.105544,40.1073349 188.186045,41.0840791 L188.186045,40.3327374 C188.186045,34.8479433 184.729874,31.8425766 178.418604,31.8425766 C173.985688,31.8425766 170.679784,32.8193207 167.073344,34.3220041 L164.593917,27.0339899 C168.951698,25.0805016 173.234346,23.7280866 179.695884,23.7280866 C191.416814,23.7280866 197.127011,29.8890882 197.127011,40.4830058 L197.127011,64 Z M188.336314,49.6493741 L188.336314,47.3953491 C186.007154,46.4937391 182.776385,45.8175316 179.245079,45.8175316 C173.534883,45.8175316 170.153845,48.1466908 170.153845,51.9785333 L170.153845,52.1288016 C170.153845,55.88551 173.534883,57.9892666 177.81753,57.9892666 C183.828264,57.9892666 188.336314,54.6082291 188.336314,49.6493741 Z" id="a"></path>
                <path d="M208.397136,64 L208.397136,32.1431132 L203.363147,32.1431132 L203.363147,24.5545624 L208.397136,24.5545624 L208.397136,21.699464 C208.397136,17.2665482 209.524149,13.9606449 211.627905,11.8568882 C213.731662,9.75313151 216.661894,8.70125318 220.568871,8.70125318 C223.724506,8.70125318 225.903397,9.15205818 227.932019,9.75313151 L227.932019,17.4168165 C226.128799,16.8157432 224.550982,16.4400724 222.597494,16.4400724 C219.141322,16.4400724 217.338102,18.3184265 217.338102,22.4508057 L217.338102,24.6296966 L227.856885,24.6296966 L227.856885,32.1431132 L217.48837,32.1431132 L217.48837,64 L208.397136,64 Z" id="f"></path>
                <path d="M250.322001,64.90161 C238.826474,64.90161 229.960642,56.5617175 229.960642,44.3148483 L229.960642,44.1645799 C229.960642,32.8193207 237.999998,23.5026841 249.345257,23.5026841 C261.967797,23.5026841 268.354201,33.4203941 268.354201,44.8407874 C268.354201,45.6672633 268.279067,46.4937391 268.203933,47.3953491 L239.051876,47.3953491 C240.02862,53.8568875 244.611805,57.4633275 250.47227,57.4633275 C254.905185,57.4633275 258.06082,55.8103758 261.216455,52.729875 L266.550981,57.4633275 C262.794273,61.9713775 257.610015,64.90161 250.322001,64.90161 Z M238.976742,41.3846158 L259.338101,41.3846158 C258.737028,35.5241508 255.280856,30.9409666 249.270123,30.9409666 C243.710195,30.9409666 239.803218,35.2236141 238.976742,41.3846158 Z" id="e"></path>
                <path d="M289.992841,64 L289.992841,15.0125232 L271.660105,15.0125232 L271.660105,11.4060832 L312.232555,11.4060832 L312.232555,15.0125232 L293.899818,15.0125232 L293.899818,64 L289.992841,64 Z M315.763861,64 L315.763861,25.6815749 L319.445435,25.6815749 L319.445435,36.5760291 C322.450801,29.7388199 328.837206,24.7799649 336.425756,25.0805016 L336.425756,29.1377466 L336.050086,29.1377466 C327.184254,29.1377466 319.445435,35.8246874 319.445435,48.2969591 L319.445435,64 L315.763861,64 Z" id="Tr"></path>
                <path d="M357.463323,64.90161 C347.395345,64.90161 338.679781,56.8622541 338.679781,44.9159216 L338.679781,44.7656533 C338.679781,33.6457966 346.493735,24.7799649 356.86225,24.7799649 C367.606436,24.7799649 374.443645,33.4955282 374.443645,44.8407874 C374.443645,45.5169949 374.443645,45.7423974 374.368511,46.3434708 L342.586758,46.3434708 C343.262966,55.88551 350.100175,61.4454383 357.613592,61.4454383 C363.549191,61.4454383 367.606436,58.8157425 370.762071,55.434705 L373.316632,57.68873 C369.409656,61.8962433 364.826472,64.90161 357.463323,64.90161 Z M342.586758,43.0375674 L370.461534,43.0375674 C369.935595,35.2987483 365.502679,28.1610024 356.711982,28.1610024 C349.123431,28.1610024 343.262966,34.5474066 342.586758,43.0375674 Z" id="e"></path>
                <polygon id="k" points="384.060818 64 384.060818 9.15205818 387.742392 9.15205818 387.742392 50.2504475 411.484789 25.6815749 416.36851 25.6815749 399.613591 42.6618966 416.894449 64 412.236131 64 397.059029 45.2915924 387.742392 54.6833633 387.742392 64"></polygon>
            </g>
        </g>
    </g>
</svg>