<?xml version="1.0" encoding="UTF-8"?>
<svg width="340px" height="60px" viewBox="0 0 340 60" version="1.1" xmlns="http://www.w3.org/2000/svg" xmlns:xlink="http://www.w3.org/1999/xlink">
    <!-- Generator: Sketch 49.1 (51147) - http://www.bohemiancoding.com/sketch -->
    <title>Connect_Button</title>
    <desc>Created with Sketch.</desc>
    <defs></defs>
    <g id="Page-1" stroke="none" stroke-width="1" fill="none" fill-rule="evenodd">
        <g id="Horizontal_White-Copy" transform="translate(-56.000000, -62.000000)">
            <g id="Connect_Button" transform="translate(56.000000, 62.000000)">
                <rect id="Rectangle-4" fill="#3F51B5" x="0" y="0" width="340" height="60" rx="4"></rect>
                <g id="Group-2" transform="translate(76.000000, 19.000000)" fill="#FFFFFF">
                    <g id="Logo" transform="translate(82.000000, 0.000000)">
                        <path d="M22.283136,0.138522953 L0.0584488591,0.176841379 C0.0584488591,0.176841379 0.0967672853,13.0709918 0.0967672853,13.4350168 C0.0967672853,14.7186841 1.01640951,23.2253747 10.9983595,23.5510814 C12.1095939,23.5893998 21.1719017,23.34033 22.2639768,13.4924945 C22.3406137,12.6878075 22.283136,0.138522953 22.283136,0.138522953 Z" id="Shape" fill-rule="nonzero"></path>
                        <path d="M34.9783372,16.2115922 C32.9283014,16.2115922 30.9932209,15.5027013 29.383847,14.0657603 L30.8016287,12.3797495 C32.085296,13.4909839 33.3689633,14.1232379 35.0358148,14.1232379 C36.491915,14.1232379 37.4115572,13.4526655 37.4115572,12.4372272 L37.4115572,12.3989088 C37.4115572,11.4409481 36.8750993,10.9236493 34.3844016,10.348873 C31.5296788,9.65914128 29.9203049,8.81613591 29.9203049,6.34459742 L29.9203049,6.30627899 C29.9203049,4.00717342 31.8362262,2.41695873 34.4993569,2.41695873 C36.4535966,2.41695873 38.0054929,3.01089434 39.365797,4.10296949 L38.1012889,5.8847763 C36.8942585,4.98429329 35.6872281,4.50531296 34.4610384,4.50531296 C33.0815751,4.50531296 32.2768881,5.21420385 32.2768881,6.09552765 L32.2768881,6.13384607 C32.2768881,7.16844358 32.889983,7.62826469 35.4573175,8.24135951 C38.2928811,8.93109118 39.7681405,9.94652948 39.7681405,12.1689982 L39.7681405,12.2073166 C39.7681405,14.7171735 37.7947415,16.2115922 34.9783372,16.2115922 Z" id="S"></path>
                        <path d="M50.2673892,16.02 L47.9682837,16.02 L47.9682837,14.7746512 C47.278552,15.5984973 46.2247953,16.2307514 44.6920582,16.2307514 C42.7761369,16.2307514 41.0901262,15.1386762 41.0901262,13.1077996 L41.0901262,13.0694812 C41.0901262,10.8278533 42.8336146,9.75493735 45.1901978,9.75493735 C46.4163874,9.75493735 47.2019151,9.92737027 47.9874429,10.17644 L47.9874429,9.9848479 C47.9874429,8.58622535 47.1061191,7.81985683 45.4967452,7.81985683 C44.3663516,7.81985683 43.5233462,8.0689266 42.603704,8.45211086 L41.97145,6.59366719 C43.0826843,6.09552765 44.1747595,5.75066181 45.8224518,5.75066181 C48.811289,5.75066181 50.2673892,7.32171729 50.2673892,10.0231663 L50.2673892,16.02 Z M48.0257613,12.3605903 L48.0257613,11.7858139 C47.4318257,11.5559034 46.6079795,11.3834705 45.7074965,11.3834705 C44.2513963,11.3834705 43.3892317,11.9774061 43.3892317,12.9545259 L43.3892317,12.9928444 C43.3892317,13.950805 44.2513963,14.487263 45.3434715,14.487263 C46.8762085,14.487263 48.0257613,13.6250984 48.0257613,12.3605903 Z" id="a"></path>
                        <path d="M53.1412712,16.02 L53.1412712,7.89649368 L51.8576039,7.89649368 L51.8576039,5.96141316 L53.1412712,5.96141316 L53.1412712,5.23336306 C53.1412712,4.10296949 53.4286594,3.25996411 53.9651174,2.72350614 C54.5015753,2.18704818 55.2487846,1.91881919 56.2450637,1.91881919 C57.0497507,1.91881919 57.6053678,2.03377447 58.1226666,2.18704818 L58.1226666,4.14128791 C57.6628455,3.98801421 57.260502,3.89221814 56.7623625,3.89221814 C55.8810387,3.89221814 55.4212176,4.37119847 55.4212176,5.42495519 L55.4212176,5.98057237 L58.1035074,5.98057237 L58.1035074,7.89649368 L55.459536,7.89649368 L55.459536,16.02 L53.1412712,16.02 Z" id="f"></path>
                        <path d="M63.8321121,16.2499106 C60.9007525,16.2499106 58.6399654,14.1232379 58.6399654,11.0002862 L58.6399654,10.9619678 C58.6399654,8.0689266 60.6900012,5.69318417 63.5830423,5.69318417 C66.8017901,5.69318417 68.4303232,8.2222003 68.4303232,11.1344007 C68.4303232,11.345152 68.411164,11.5559034 68.3920048,11.7858139 L60.9582301,11.7858139 C61.2072999,13.4335063 62.3760119,14.3531485 63.8704305,14.3531485 C65.0008241,14.3531485 65.8055111,13.9316458 66.610198,13.1461181 L67.9705021,14.3531485 C67.0125415,15.5027013 65.6905558,16.2499106 63.8321121,16.2499106 Z M60.9390709,10.2530769 L66.1312177,10.2530769 C65.977944,8.75865827 65.0966202,7.58994627 63.5638831,7.58994627 C62.1461014,7.58994627 61.1498223,8.68202141 60.9390709,10.2530769 Z" id="e"></path>
                        <path d="M73.9481766,16.02 L73.9481766,3.52819309 L69.2733286,3.52819309 L69.2733286,2.60855086 L79.6193037,2.60855086 L79.6193037,3.52819309 L74.9444557,3.52819309 L74.9444557,16.02 L73.9481766,16.02 Z M80.5197867,16.02 L80.5197867,6.24880135 L81.4585881,6.24880135 L81.4585881,9.02688725 C82.2249567,7.28339886 83.8534898,6.01889079 85.7885703,6.09552765 L85.7885703,7.13012515 L85.6927742,7.13012515 C83.4319871,7.13012515 81.4585881,8.83529512 81.4585881,12.0157245 L81.4585881,16.02 L80.5197867,16.02 Z" id="Tr"></path>
                        <path d="M91.15315,16.2499106 C88.5858154,16.2499106 86.3633467,14.1998748 86.3633467,11.1535599 L86.3633467,11.1152415 C86.3633467,8.27967794 88.3559049,6.01889079 90.9998763,6.01889079 C93.7396437,6.01889079 95.4831321,8.24135951 95.4831321,11.1344007 C95.4831321,11.3068336 95.4831321,11.3643112 95.4639729,11.517585 L87.3596258,11.517585 C87.5320587,13.950805 89.2755471,15.3685868 91.1914684,15.3685868 C92.7050462,15.3685868 93.7396437,14.6980143 94.5443307,13.8358497 L95.1957439,14.4106261 C94.1994649,15.4835421 93.0307529,16.2499106 91.15315,16.2499106 Z M87.3596258,10.6745796 L94.4676938,10.6745796 C94.3335793,8.70118063 93.2031858,6.88105538 90.9615578,6.88105538 C89.0264773,6.88105538 87.5320587,8.5095885 87.3596258,10.6745796 Z" id="e"></path>
                        <polygon id="k" points="97.9355114 16.02 97.9355114 2.03377447 98.8743128 2.03377447 98.8743128 12.513864 104.928624 6.24880135 106.173973 6.24880135 101.901469 10.5787835 106.308088 16.02 105.120216 16.02 101.250055 11.249356 98.8743128 13.6442576 98.8743128 16.02"></polygon>
                    </g>
                    <path d="M11.109375,12.4882812 C10.9335929,13.992195 10.3785854,15.1526652 9.44433594,15.9697266 C8.51008647,16.7867879 7.26823691,17.1953125 5.71875,17.1953125 C4.0390541,17.1953125 2.69303892,16.593105 1.68066406,15.3886719 C0.668289209,14.1842388 0.162109375,12.5729268 0.162109375,10.5546875 L0.162109375,9.1875 C0.162109375,7.86587881 0.398109619,6.70378105 0.870117187,5.70117188 C1.34212476,4.6985627 2.01106338,3.92871362 2.87695312,3.39160156 C3.74284287,2.8544895 4.74543701,2.5859375 5.88476562,2.5859375 C7.39518984,2.5859375 8.60611523,3.00748276 9.51757812,3.85058594 C10.429041,4.69368911 10.9596347,5.86066963 11.109375,7.3515625 L9.22460937,7.3515625 C9.06184814,6.21874434 8.70866157,5.39844004 8.16503906,4.890625 C7.62141655,4.38280996 6.86133301,4.12890625 5.88476562,4.12890625 C4.68684297,4.12890625 3.74772476,4.57161016 3.06738281,5.45703125 C2.38704087,6.34245234 2.046875,7.60220537 2.046875,9.23632812 L2.046875,10.6132812 C2.046875,12.1562577 2.3691374,13.383459 3.01367187,14.2949219 C3.65820635,15.2063848 4.55989004,15.6621094 5.71875,15.6621094 C6.76042187,15.6621094 7.55956753,15.4261091 8.11621094,14.9541016 C8.67285435,14.482094 9.0423168,13.6601621 9.22460937,12.4882812 L11.109375,12.4882812 Z M12.90625,11.6191406 C12.90625,10.5839792 13.1096985,9.65299893 13.5166016,8.82617188 C13.9235046,7.99934482 14.4899052,7.36133037 15.2158203,6.91210938 C15.9417354,6.46288838 16.7701776,6.23828125 17.7011719,6.23828125 C19.1399812,6.23828125 20.3037065,6.73632314 21.1923828,7.73242188 C22.0810591,8.72852061 22.5253906,10.0533771 22.5253906,11.7070312 L22.5253906,11.8339844 C22.5253906,12.8626354 22.3284525,13.7854777 21.9345703,14.6025391 C21.5406881,15.4196004 20.9775427,16.0559873 20.2451172,16.5117188 C19.5126917,16.9674502 18.6712287,17.1953125 17.7207031,17.1953125 C16.2884043,17.1953125 15.1279341,16.6972706 14.2392578,15.7011719 C13.3505815,14.7050731 12.90625,13.386727 12.90625,11.7460938 L12.90625,11.6191406 Z M14.7226562,11.8339844 C14.7226562,13.0058652 14.9944634,13.946611 15.5380859,14.65625 C16.0817084,15.365889 16.8092402,15.7207031 17.7207031,15.7207031 C18.6386765,15.7207031 19.3678358,15.3610062 19.9082031,14.6416016 C20.4485704,13.9221969 20.71875,12.91472 20.71875,11.6191406 C20.71875,10.4602807 20.4436876,9.52116245 19.8935547,8.80175781 C19.3434217,8.08235317 18.6126348,7.72265625 17.7011719,7.72265625 C16.8092403,7.72265625 16.0898465,8.07747041 15.5429688,8.78710938 C14.996091,9.49674834 14.7226562,10.5123632 14.7226562,11.8339844 Z M26.5,6.43359375 L26.5585938,7.76171875 C27.3658895,6.74608867 28.4205664,6.23828125 29.7226562,6.23828125 C31.9557403,6.23828125 33.0820312,7.49803428 33.1015625,10.0175781 L33.1015625,17 L31.2949219,17 L31.2949219,10.0078125 C31.2884114,9.24608994 31.1142595,8.68294453 30.7724609,8.31835938 C30.4306624,7.95377422 29.8984411,7.77148438 29.1757812,7.77148438 C28.5898408,7.77148438 28.075523,7.92773281 27.6328125,8.24023438 C27.190102,8.55273594 26.8450533,8.96288809 26.5976562,9.47070312 L26.5976562,17 L24.7910156,17 L24.7910156,6.43359375 L26.5,6.43359375 Z M37.5351562,6.43359375 L37.59375,7.76171875 C38.4010457,6.74608867 39.4557227,6.23828125 40.7578125,6.23828125 C42.9908966,6.23828125 44.1171874,7.49803428 44.1367188,10.0175781 L44.1367188,17 L42.3300781,17 L42.3300781,10.0078125 C42.3235677,9.24608994 42.1494158,8.68294453 41.8076172,8.31835938 C41.4658186,7.95377422 40.9335974,7.77148438 40.2109375,7.77148438 C39.6249971,7.77148438 39.1106793,7.92773281 38.6679688,8.24023438 C38.2252582,8.55273594 37.8802096,8.96288809 37.6328125,9.47070312 L37.6328125,17 L35.8261719,17 L35.8261719,6.43359375 L37.5351562,6.43359375 Z M51.2460938,17.1953125 C49.8137949,17.1953125 48.648442,16.7249396 47.75,15.7841797 C46.851558,14.8434198 46.4023438,13.5852943 46.4023438,12.0097656 L46.4023438,11.6777344 C46.4023438,10.6295521 46.6025371,9.69368901 47.0029297,8.87011719 C47.4033223,8.04654536 47.9632125,7.40202056 48.6826172,6.93652344 C49.4020218,6.47102632 50.1816364,6.23828125 51.0214844,6.23828125 C52.3951892,6.23828125 53.4628868,6.69075068 54.2246094,7.59570312 C54.9863319,8.50065557 55.3671875,9.79621553 55.3671875,11.4824219 L55.3671875,12.234375 L48.2089844,12.234375 C48.2350262,13.2760469 48.5393851,14.1175098 49.1220703,14.7587891 C49.7047555,15.4000683 50.445308,15.7207031 51.34375,15.7207031 C51.981774,15.7207031 52.5221332,15.5904961 52.9648438,15.3300781 C53.4075543,15.0696602 53.7949202,14.7246115 54.1269531,14.2949219 L55.2304688,15.1542969 C54.3450477,16.5149808 53.0169359,17.1953125 51.2460938,17.1953125 Z M51.0214844,7.72265625 C50.2923141,7.72265625 49.680341,7.98795308 49.1855469,8.51855469 C48.6907527,9.0491563 48.3847662,9.79296396 48.2675781,10.75 L53.5605469,10.75 L53.5605469,10.6132812 C53.5084633,9.69530791 53.2610699,8.984052 52.8183594,8.47949219 C52.3756488,7.97493237 51.7766965,7.72265625 51.0214844,7.72265625 Z M61.6953125,15.7207031 C62.339847,15.7207031 62.9029924,15.5253926 63.3847656,15.1347656 C63.8665389,14.7441387 64.1334633,14.2558623 64.1855469,13.6699219 L65.8945312,13.6699219 C65.861979,14.2753937 65.6536478,14.8515598 65.2695312,15.3984375 C64.8854147,15.9453152 64.3727246,16.3815088 63.7314453,16.7070312 C63.0901661,17.0325537 62.4114619,17.1953125 61.6953125,17.1953125 C60.2565032,17.1953125 59.1123089,16.7151741 58.2626953,15.7548828 C57.4130817,14.7945916 56.9882812,13.4811281 56.9882812,11.8144531 L56.9882812,11.5117188 C56.9882812,10.4830678 57.1770814,9.56836338 57.5546875,8.76757812 C57.9322936,7.96679287 58.4742803,7.3450543 59.1806641,6.90234375 C59.8870478,6.4596332 60.7220004,6.23828125 61.6855469,6.23828125 C62.8704486,6.23828125 63.8551393,6.59309541 64.6396484,7.30273438 C65.4241576,8.01237334 65.8424477,8.93358809 65.8945312,10.0664062 L64.1855469,10.0664062 C64.1334633,9.38280908 63.8746768,8.82129126 63.4091797,8.38183594 C62.9436826,7.94238062 62.369144,7.72265625 61.6855469,7.72265625 C60.7675735,7.72265625 60.0563176,8.05305659 59.5517578,8.71386719 C59.047198,9.37467778 58.7949219,10.3300719 58.7949219,11.5800781 L58.7949219,11.921875 C58.7949219,13.139329 59.0455704,14.0768196 59.546875,14.734375 C60.0481796,15.3919304 60.7643183,15.7207031 61.6953125,15.7207031 Z M70.3769531,3.875 L70.3769531,6.43359375 L72.3496094,6.43359375 L72.3496094,7.83007812 L70.3769531,7.83007812 L70.3769531,14.3828125 C70.3769531,14.8059917 70.4648429,15.1233713 70.640625,15.3349609 C70.8164071,15.5465505 71.1158833,15.6523438 71.5390625,15.6523438 C71.7473969,15.6523438 72.0338523,15.6132816 72.3984375,15.5351562 L72.3984375,17 C71.9231747,17.130209 71.4609397,17.1953125 71.0117188,17.1953125 C70.204423,17.1953125 69.5957052,16.9511743 69.1855469,16.4628906 C68.7753886,15.9746069 68.5703125,15.2812545 68.5703125,14.3828125 L68.5703125,7.83007812 L66.6464844,7.83007812 L66.6464844,6.43359375 L68.5703125,6.43359375 L68.5703125,3.875 L70.3769531,3.875 Z" id="Connect"></path>
                </g>
            </g>
        </g>
    </g>
</svg>